<?xml version="1.0" encoding="UTF-8"?>
<svg xmlns="http://www.w3.org/2000/svg" xmlns:xlink="http://www.w3.org/1999/xlink" viewBox="0 0 1000 1000">
  <defs>
    <style>
      .cls-1 {
        fill: #4d8a32;
      }

      .cls-1, .cls-2, .cls-3, .cls-4, .cls-5 {
        stroke-width: 0px;
      }

      .cls-2 {
        fill: none;
      }

      .cls-3 {
        fill: #fff;
      }

      .cls-6 {
        clip-path: url(#clippath);
      }

      .cls-4 {
        fill: #66b32e;
      }

      .cls-5 {
        fill: #1d1d1b;
      }
    </style>
    <clipPath id="clippath">
      <path class="cls-2" d="M-201.75,591.76c-18.26,32.56-84.19,18.28-153.68,76.45-17.52,14.66-29.7,29.27-37.22,39.27l-1.86,3.64c-21.17,41.64-63.92,67.86-110.63,67.86h-11.32c-46.7,0-89.46-26.23-110.63-67.86l-1.86-3.64c-7.52-10-19.7-24.61-37.22-39.27-69.49-58.17-135.42-43.89-153.68-76.45-11.88-21.18-4.41-63.65,79.93-156.99-10.6-16.35-40.86-67.72-32.77-135.38,4.21-35.24,17.28-62.1,27.08-78.38,16.81.79,44.47,4.35,74.28,19.59,46.74,23.89,69.79,61.66,78.2,77.32,23.5-2,49.15-3.15,76.67-2.91h11.32c27.52-.24,53.17.91,76.67,2.91,8.41-15.66,31.46-53.43,78.2-77.32,29.81-15.23,57.46-18.8,74.28-19.59,9.79,16.28,22.87,43.14,27.08,78.38,8.09,67.66-22.17,119.03-32.77,135.38,84.34,93.35,91.81,135.81,79.93,156.99Z"/>
    </clipPath>
  </defs>
  <g id="Warstwa_1_kopia" data-name="Warstwa 1 kopia">
    <g class="cls-6">
      <g>
        <path class="cls-1" d="M-113.73,183.8l14.26-14.26,25.97,14.86,1.14,12.27L-4.2,264.79l.25-.25c4.31-4.32,11.29-4.38,15.67-.13l5.19,5.03h0c2.86-2.86,7.48-2.86,10.34,0l54.14,54.12c5.14,5.15,5.14,13.5,0,18.65l-23.51,23.5c-2.18,2.18-5.15,3.41-8.22,3.41s-6.07-1.23-8.26-3.41l-54.79-54.81c-3.08-3.08-3.08-8.08,0-11.16h0s-4.94-4.79-4.94-4.79c-4.48-4.34-4.53-11.5-.13-15.91h0s-68.15-68.15-68.15-68.15l-11.98-.89-15.13-26.23Z"/>
        <path class="cls-1" d="M-172.29,588.51l14.26-14.26,25.97,14.86,1.14,12.27,68.15,68.13.25-.25c4.31-4.32,11.29-4.38,15.67-.13l5.19,5.03h0c2.86-2.86,7.48-2.86,10.34,0l54.14,54.12c5.14,5.15,5.14,13.5,0,18.65l-23.51,23.5c-2.18,2.18-5.15,3.41-8.22,3.41s-6.07-1.23-8.26-3.41l-54.79-54.81c-3.08-3.08-3.08-8.08,0-11.16h0s-4.94-4.79-4.94-4.79c-4.48-4.34-4.53-11.5-.13-15.91h0s-68.15-68.15-68.15-68.15l-11.98-.89-15.13-26.23Z"/>
        <path class="cls-1" d="M21.62,548.27c-4.9-.11-8.44,1.74-9.33,2.23-.89.49-2.45,1.45-4.05,3.07-4.92,4.98-6.33,12.09-4.27,18.31l-34.5,34.84c-2.04,2.06-2.02,5.39.04,7.43l4.15,4.11c2.06,2.04,5.38,2.02,7.43-.04l34.53-34.87c6.22,1.95,13.28.46,18.18-4.49,1.55-1.56,2.47-3.07,2.94-3.92.5-.9,2.36-4.46,2.23-9.38-.05-2.05-.44-3.74-.8-4.95-3.77,3.8-7.54,7.59-11.31,11.39-3.58.02-7.17.05-10.75.07-.29-3.85-.58-7.71-.87-11.56,3.79-3.81,7.57-7.63,11.36-11.44-1.15-.35-2.87-.74-4.98-.79ZM-20.52,612.6c-1.21,1.22-3.18,1.23-4.41.02-1.22-1.21-1.23-3.18-.02-4.41,1.21-1.23,3.19-1.23,4.41-.02,1.23,1.21,1.24,3.19.02,4.41Z"/>
        <path class="cls-1" d="M55.56,440.64l-41.56-41.61c-4.08-4.08-10.7-4.09-14.79,0l-41.72,41.68c-1.38,1.38-1.23,3.64.31,4.83l-80.52,80.41,30.01,30.01,1.55-11.32,12.16,1.46,1.63-11.95,12.13,1.65,1.65-12.12,12.12,1.65,1.65-12.13,12.13,1.66,1.65-12.13,12.13,1.65,1.66-12.12,12.12,1.65,1.66-12.12,15.74,2.14c3.28,2.41,7.19,3.44,11,3.15,3.81-.29,7.52-1.9,10.39-4.77l26.9-26.87c4.08-4.08,4.09-10.7,0-14.79ZM23.14,462.86c-3.44,3.44-8.9,3.79-12.75.83l-20.04-15.39c-4.64-3.56-5.08-10.4-.94-14.54l14.39-14.37c.74-.74,1.74-1.16,2.79-1.15,1.06,0,2.06.41,2.8,1.16l2.27,2.28c-1.68,1.68-2.63,3.97-2.63,6.35,0,2.38.94,4.66,2.62,6.35l8.58,8.59c1.68,1.69,3.96,2.63,6.35,2.63,2.38,0,4.66-.95,6.34-2.63l2.28,2.27c.74.74,1.16,1.75,1.16,2.8s-.42,2.05-1.16,2.8l-12.05,12.03Z"/>
        <path class="cls-1" d="M12.12,9.36l-46.26-46.32c-4.54-4.54-11.91-4.55-16.46,0L-97.04,9.43c-1.53,1.53-1.37,4.06.35,5.38l-89.63,89.51,33.41,33.41,1.72-12.61,13.53,1.63,1.81-13.3,13.5,1.84,1.84-13.49,13.5,1.83,1.83-13.51,13.5,1.85,1.84-13.5,13.5,1.84,1.84-13.5,13.49,1.84,1.84-13.5,17.53,2.38c3.65,2.68,8,3.83,12.24,3.5,4.24-.32,8.37-2.12,11.57-5.31L12.12,25.82c4.55-4.55,4.55-11.91,0-16.46ZM-23.97,34.09c-3.83,3.83-9.9,4.22-14.19.92l-22.31-17.13c-5.16-3.97-5.65-11.58-1.05-16.19l16.02-15.99c.82-.82,1.94-1.29,3.1-1.28,1.18,0,2.29.46,3.12,1.29l2.53,2.54c-1.87,1.87-2.93,4.42-2.93,7.07,0,2.65,1.05,5.19,2.92,7.07l9.55,9.56c1.87,1.88,4.41,2.93,7.07,2.93,2.65,0,5.19-1.06,7.06-2.93l2.54,2.53c.83.83,1.29,1.95,1.29,3.12s-.47,2.28-1.29,3.11l-13.42,13.4Z"/>
      </g>
    </g>
  </g>
  <g id="Warstwa_1_kopia_2" data-name="Warstwa 1 kopia 2">
    <g>
      <g>
        <path class="cls-4" d="M809.05,591.76c-14.53,25.9-59.21,22.17-111.86,48.84-1.24.62-2.48,1.27-3.73,1.93-12.38,6.56-25.17,14.87-38.09,25.68-.11.09-.21.18-.32.27-1.03.87-2.05,1.74-3.04,2.61-15.73,13.67-26.83,27.05-33.86,36.39l-1.86,3.64c-5.75,11.31-13.09,21.48-21.69,30.3-1.56,1.62-3.19,3.2-4.85,4.73-21.67,19.97-50.11,31.9-80.44,32.78-1.21.04-2.43.06-3.65.06h-11.32c-1.26,0-2.52-.02-3.78-.06-17.4-.53-34.18-4.69-49.41-11.92-1.63-.77-3.23-1.58-4.82-2.42-22.23-11.75-40.8-30.2-52.62-53.47l-1.86-3.64c-7.52-9.99-19.7-24.61-37.21-39.27-69.49-58.16-135.42-43.89-153.68-76.45-9.41-16.78-6.68-46.93,36.83-105.17,11.4-15.25,25.59-32.44,43.1-51.82-6.68-10.31-21.19-34.55-28.97-68.03-4.55-19.59-6.79-42.36-3.8-67.35,4.2-35.24,17.28-62.09,27.07-78.37,16.82.78,44.48,4.35,74.28,19.58,46.74,23.89,69.79,61.66,78.2,77.32,23.5-2,49.15-3.16,76.67-2.91h11.32c27.53-.25,53.18.91,76.67,2.91,8.42-15.66,31.47-53.43,78.2-77.32,29.81-15.23,57.47-18.8,74.28-19.58,9.8,16.28,22.87,43.13,27.08,78.37,2.99,24.99.75,47.75-3.81,67.35-7.77,33.48-22.28,57.72-28.96,68.03,17.51,19.38,31.7,36.56,43.1,51.82,43.5,58.24,46.24,88.39,36.83,105.17Z"/>
        <g>
          <path class="cls-5" d="M585.54,728.52l-69.03-69.11c-2.28-2.28-6.04-2.04-8.01.52l-133.19-133.37-49.71,49.71,18.75,2.56-2.42,20.14,19.79,2.7-2.74,20.09,20.08,2.73-2.73,20.08,20.1,2.73-2.75,20.09,20.09,2.74-2.74,20.09,20.08,2.74-2.73,20.07,20.08,2.74-3.55,26.08c-3.99,5.44-5.69,11.91-5.21,18.22.18,2.36.67,4.69,1.45,6.94,15.23,7.23,32.01,11.39,49.41,11.92l-10.75-10.78c-5.7-5.69-6.28-14.74-1.37-21.11l25.49-33.2c5.91-7.69,17.23-8.42,24.09-1.56l23.8,23.83c1.23,1.23,1.92,2.89,1.91,4.62,0,1.75-.68,3.41-1.92,4.64l-3.77,3.76c-2.79-2.79-6.57-4.36-10.51-4.36-3.95-.01-7.73,1.55-10.52,4.34l-14.23,14.22c-2.8,2.78-4.36,6.56-4.36,10.51,0,1.75.3,3.47.89,5.09,30.33-.88,58.77-12.81,80.44-32.78,1.96-6,.56-12.86-4.21-17.63Z"/>
          <path class="cls-3" d="M588.37,725.68l-69.03-69.11c-1.9-1.9-4.55-2.89-7.21-2.72-1.13.08-2.22.35-3.23.81l-133.59-133.77-58.24,58.24,22.84,3.12-2.42,20.14,19.73,2.69-2.74,20.09,20.08,2.74-2.73,20.08,20.09,2.72-2.75,20.09,20.1,2.74-2.74,20.09,20.08,2.74-2.73,20.07,20.08,2.74-2.88,21.15c-4.01,5.86-5.91,12.94-5.37,20.04.11,1.41.32,2.82.62,4.21,1.59.84,3.19,1.65,4.82,2.42,15.23,7.23,32.01,11.39,49.41,11.92,1.26.04,2.52.06,3.78.06h1.93l-13.63-13.67c-4.27-4.26-4.71-11.07-1.03-15.84l25.49-33.2c2.12-2.75,5.31-4.46,8.77-4.68,3.46-.24,6.86,1.05,9.32,3.51l23.8,23.83c.48.48.74,1.11.74,1.79s-.26,1.33-.75,1.81l-1.23,1.23c-3.02-1.95-6.54-3-10.21-3h-.05c-5.03,0-9.75,1.96-13.31,5.51l-14.22,14.21c-3.57,3.55-5.54,8.29-5.54,13.35,0,1.76.24,3.49.72,5.15h.52c1.22,0,2.44-.02,3.65-.06,30.33-.88,58.77-12.81,80.44-32.78,1.66-1.53,3.29-3.11,4.85-4.73.2-5.8-1.98-11.48-6.23-15.73ZM586.22,743.95c-20.37,18.42-46.41,29.29-73.76,30.83-.03-.31-.04-.63-.04-.95,0-2.91,1.13-5.64,3.19-7.68l14.23-14.22c2.04-2.05,4.76-3.17,7.66-3.17h.03c2.9,0,5.62,1.13,7.68,3.19l2.83,2.82,6.59-6.57c2-1.99,3.1-4.64,3.1-7.46.02-2.81-1.08-5.47-3.08-7.47l-23.8-23.83c-4.09-4.08-9.74-6.21-15.5-5.84-5.76.38-11.08,3.22-14.59,7.79l-25.49,33.2c-6.13,7.95-5.39,19.29,1.71,26.37l3.17,3.18c-12.35-1.45-24.32-4.81-35.71-10.02-.39-1.43-.64-2.9-.75-4.36-.42-5.55,1.16-11.07,4.45-15.56l.6-.81,4.22-31.05-20.08-2.74,2.73-20.07-20.08-2.74,2.74-20.09-20.08-2.74,2.75-20.09-20.11-2.73,2.73-20.08-20.08-2.73,2.74-20.09-19.85-2.71,2.42-20.14-14.66-2,41.18-41.18,133.58,133.76,2.78-3.61c.32-.42.75-.51.98-.52.22-.02.66.01,1.03.39l69.03,69.11c3.33,3.33,4.63,8.08,3.51,12.61Z"/>
        </g>
        <g>
          <path class="cls-5" d="M693.46,642.52c-12.38,6.56-25.17,14.87-38.09,25.68-.11.09-.21.18-.32.27l-58.03-58.04-12.26,12.26c-1.79,1.79-4.13,2.68-6.47,2.68s-4.69-.89-6.47-2.68l-4.42,4.42,10.18,10.18c2.78,2.78,2.78,7.29,0,10.07l-13.22,13.23c-4.28,4.28-11.22,4.28-15.5,0l-45.65-45.65c-4.28-4.28-4.28-11.22,0-15.5l13.23-13.22c2.78-2.78,7.29-2.78,10.07,0l10.18,10.18,4.42-4.42c-3.57-3.58-3.57-9.37,0-12.95l54.79-54.78c21.43-21.44,56.18-21.44,77.61,0l15.55,15.54c-25.27-5.96-48.26,1.87-56.66,17.58-.09.18-.19.37-.3.58-4.68,9.26-2.7,20.51,4.64,27.85l56.72,56.72Z"/>
          <path class="cls-3" d="M635.64,559.82c.11-.21.22-.41.31-.6,7.82-14.55,29.27-20.94,52.19-15.53l13.71,3.24-25.51-25.5c-11.12-11.12-25.91-17.25-41.64-17.25s-30.51,6.13-41.63,17.25l-54.79,54.79c-3.44,3.44-4.57,8.34-3.38,12.74l-5.56-5.56c-4.34-4.33-11.39-4.33-15.73,0l-13.23,13.22c-2.82,2.83-4.38,6.58-4.38,10.58s1.56,7.75,4.38,10.58l45.65,45.65c5.83,5.83,15.33,5.83,21.16,0l13.22-13.23c4.33-4.34,4.33-11.39,0-15.73l-5.54-5.53c1.1.29,2.25.44,3.42.44,3.51,0,6.81-1.37,9.3-3.85l9.43-9.43,54.99,54.99c.99-.87,2.01-1.74,3.04-2.61.11-.09.21-.18.32-.27,12.92-10.81,25.71-19.12,38.09-25.68,1.25-.66,2.49-1.31,3.73-1.93l-57.62-57.62c-6.21-6.21-7.78-15.54-3.93-23.16ZM655.31,663.08l-58.29-58.3-15.09,15.09c-.97.97-2.26,1.51-3.64,1.51s-2.67-.53-3.63-1.5l-2.83-2.84-10.09,10.08,13.01,13.01c1.22,1.21,1.22,3.2,0,4.41l-13.22,13.23c-1.31,1.32-3.06,2.04-4.92,2.04s-3.61-.72-4.92-2.04l-45.65-45.65c-1.32-1.31-2.04-3.06-2.04-4.92s.72-3.61,2.04-4.92l13.23-13.22c1.21-1.22,3.2-1.22,4.41,0l13.01,13.01,10.07-10.08-2.82-2.82c-2-2.02-2-5.29,0-7.3l54.79-54.78c9.61-9.62,22.38-14.91,35.97-14.91s26.37,5.29,35.98,14.91l6.92,6.91c-21.65-1.56-40.72,6.52-48.73,21.49l-.05.1c-.08.16-.16.33-.29.57-5.44,10.76-3.28,23.82,5.38,32.48l52.94,52.94c-11.09,6.22-21.48,13.3-31.54,21.5Z"/>
        </g>
        <path class="cls-3" d="M227.79,486.58c11.4-15.25,25.59-32.44,43.1-51.82-6.68-10.31-21.19-34.55-28.97-68.03h516.16c-7.77,33.48-22.28,57.72-28.96,68.03,17.51,19.38,31.7,36.56,43.1,51.82H227.79Z"/>
      </g>
      <g>
        <path class="cls-5" d="M352.08,408.52c-5.41-5.32-13.24-8.39-22.92-8.39h-22.92v58.43h23c10.09,0,17.75-3.23,23.16-8.64,5.41-5.4,8.07-12.67,8.07-20.58,0-8.39-2.99-15.49-8.39-20.82ZM339.65,440.32c-2.75,2.66-6.3,4.2-10.65,4.2h-6.14v-30.35h6.14c4.35,0,7.9,1.54,10.65,4.2,2.74,2.66,4.19,6.62,4.19,10.97s-1.45,8.32-4.19,10.98Z"/>
        <path class="cls-5" d="M403.72,434.98c6.21-3.06,9.92-8.71,9.92-16.14,0-6.29-2.66-11.13-6.94-14.28-4.28-3.15-9.44-4.44-15.82-4.44h-23.48v58.43h16.46v-20.98h3.88l12.18,20.98h18.48l-14.68-23.57ZM395.09,424.33c-1.37.97-2.99,1.37-5.89,1.37h-5.33v-12.34h5.33c2.9,0,4.52.4,5.89,1.37,1.37.97,2.1,2.82,2.1,4.84s-.73,3.79-2.1,4.76Z"/>
        <path class="cls-5" d="M437.85,444.52v-8.88h18.32v-13.24h-18.32v-8.23h21.63v-14.04h-38.09v58.43h39.06v-14.04h-22.6Z"/>
        <path class="cls-5" d="M533.73,400.12l-5.81,20.34c-1.46,5.08-2.91,10.33-4.28,15.49h-.16c-1.29-5-2.75-10.17-4.2-15.25l-5.89-20.58h-12.19l-6.05,20.66c-1.45,4.92-2.99,10.33-4.28,15.17h-.16c-1.21-4.84-2.58-10.09-3.95-15.09l-5.65-20.74h-17.43l17.59,58.43h17.19l4.03-13.88c1.46-5.01,2.91-10.25,4.28-15.42h.16c1.3,5.09,2.67,10.01,4.12,15.18l4.03,14.12h17.6l17.83-58.43h-16.78Z"/>
        <path class="cls-5" d="M550.67,431.27v12.27h20.74v-12.27h-20.74Z"/>
        <path class="cls-5" d="M595.8,444.52v-44.39h-16.63v58.43h41v-14.04h-24.37Z"/>
        <path class="cls-5" d="M625.9,400.12v58.43h16.62v-58.43h-16.62Z"/>
        <path class="cls-5" d="M686.83,426.59c-4.6-2.9-11.86-4.44-15.25-5.49-3.39-1.05-4.93-2.1-4.93-4.27,0-2.51,2.02-3.8,5.57-3.8,3.96,0,11.46,1.62,18.48,5.49v-15.01c-5.49-2.74-13.07-4.28-19.04-4.28-13.24,0-21.87,7.1-21.87,19.05,0,6.13,2.34,10.33,6.86,13.31,4.52,2.99,11.86,4.44,15.33,5.57,3.47,1.13,4.92,2.18,4.92,4.36,0,2.83-2.26,4.12-5.97,4.12-4.03,0-12.59-1.78-20.01-6.38v15.74c5.97,2.98,13.96,4.44,20.17,4.44,13.64,0,22.68-7.02,22.68-19.29,0-5.97-2.34-10.65-6.94-13.56Z"/>
      </g>
    </g>
  </g>
</svg>